<svg xmlns="http://www.w3.org/2000/svg" xmlns:xlink="http://www.w3.org/1999/xlink" viewBox="0 0 2450.64 542.2"><defs><style>.cls-1{fill:#fff;}.cls-2{clip-path:url(#clip-path);}.cls-3{clip-path:url(#clip-path-2);}.cls-4{clip-path:url(#clip-path-3);}.cls-5{clip-path:url(#clip-path-4);}.cls-6{clip-path:url(#clip-path-5);}.cls-7{clip-path:url(#clip-path-6);}.cls-8{clip-path:url(#clip-path-7);}.cls-9{clip-path:url(#clip-path-8);}.cls-10{clip-path:url(#clip-path-9);}.cls-11{clip-path:url(#clip-path-10);}.cls-12{clip-path:url(#clip-path-11);}.cls-13{clip-path:url(#clip-path-12);}.cls-14{clip-path:url(#clip-path-13);}.cls-15{clip-path:url(#clip-path-14);}.cls-16{clip-path:url(#clip-path-15);}.cls-17{clip-path:url(#clip-path-16);}.cls-18{clip-path:url(#clip-path-17);}.cls-19{clip-path:url(#clip-path-18);}.cls-20{clip-path:url(#clip-path-19);}.cls-21{clip-path:url(#clip-path-20);}.cls-22{clip-path:url(#clip-path-21);}.cls-23{clip-path:url(#clip-path-22);}.cls-24{clip-path:url(#clip-path-23);}.cls-25{clip-path:url(#clip-path-24);}.cls-26{clip-path:url(#clip-path-25);}.cls-27{clip-path:url(#clip-path-26);}.cls-28{clip-path:url(#clip-path-27);}.cls-29{clip-path:url(#clip-path-28);}.cls-30{clip-path:url(#clip-path-29);}.cls-31{clip-path:url(#clip-path-30);}.cls-32{clip-path:url(#clip-path-31);}.cls-33{clip-path:url(#clip-path-32);}.cls-34{clip-path:url(#clip-path-33);}.cls-35{clip-path:url(#clip-path-34);}.cls-36{clip-path:url(#clip-path-35);}.cls-37{clip-path:url(#clip-path-36);}.cls-38{clip-path:url(#clip-path-37);}.cls-39{clip-path:url(#clip-path-38);}.cls-40{clip-path:url(#clip-path-39);}.cls-41{clip-path:url(#clip-path-40);}.cls-42{clip-path:url(#clip-path-41);}.cls-43{clip-path:url(#clip-path-42);}.cls-44{clip-path:url(#clip-path-43);}.cls-45{clip-path:url(#clip-path-44);}.cls-46{clip-path:url(#clip-path-45);}.cls-47{clip-path:url(#clip-path-46);}.cls-48{clip-path:url(#clip-path-47);}.cls-49{clip-path:url(#clip-path-48);}.cls-50{clip-path:url(#clip-path-49);}.cls-51{clip-path:url(#clip-path-50);}.cls-52{clip-path:url(#clip-path-51);}.cls-53{clip-path:url(#clip-path-52);}.cls-54{clip-path:url(#clip-path-53);}.cls-55{clip-path:url(#clip-path-54);}</style><clipPath id="clip-path"><path class="cls-1" d="M306.5,50.8a14.83,14.83,0,1,0,1.7-20.9,14.77,14.77,0,0,0-1.7,20.9"/></clipPath><clipPath id="clip-path-2"><path class="cls-1" d="M354,75.3a13.2,13.2,0,1,0,1.6-18.6A13.17,13.17,0,0,0,354,75.3"/></clipPath><clipPath id="clip-path-3"><path class="cls-1" d="M389.3,108.7a11.5,11.5,0,1,0,1.4-16.2,11.28,11.28,0,0,0-1.4,16.2"/></clipPath><clipPath id="clip-path-4"><path class="cls-1" d="M409.5,145.7a9.94,9.94,0,1,0,1.2-14,9.79,9.79,0,0,0-1.2,14"/></clipPath><clipPath id="clip-path-5"><path class="cls-1" d="M419.9,184a8.23,8.23,0,1,0,1-11.6,8.05,8.05,0,0,0-1,11.6"/></clipPath><clipPath id="clip-path-6"><path class="cls-1" d="M421.2,218.9a6.6,6.6,0,1,0,.8-9.3,6.45,6.45,0,0,0-.8,9.3"/></clipPath><clipPath id="clip-path-7"><path class="cls-1" d="M414.2,250.5a4.9,4.9,0,1,0,.6-6.9,4.73,4.73,0,0,0-.6,6.9"/></clipPath><clipPath id="clip-path-8"><path class="cls-1" d="M401.6,276.7a3.34,3.34,0,1,0,.4-4.7,3.33,3.33,0,0,0-.4,4.7"/></clipPath><clipPath id="clip-path-9"><path class="cls-1" d="M247.8,43.4a16.53,16.53,0,1,0,1.9-23.3,16.59,16.59,0,0,0-1.9,23.3"/></clipPath><clipPath id="clip-path-10"><path class="cls-1" d="M191.6,510.5a14.83,14.83,0,1,0,1.7-20.9,14.77,14.77,0,0,0-1.7,20.9"/></clipPath><clipPath id="clip-path-11"><path class="cls-1" d="M146.6,484a13.2,13.2,0,1,0,1.6-18.6,13.17,13.17,0,0,0-1.6,18.6"/></clipPath><clipPath id="clip-path-12"><path class="cls-1" d="M113.9,448.4a11.5,11.5,0,1,0,1.4-16.2,11.55,11.55,0,0,0-1.4,16.2"/></clipPath><clipPath id="clip-path-13"><path class="cls-1" d="M96.2,409.2a9.94,9.94,0,1,0,1.2-14,10,10,0,0,0-1.2,14"/></clipPath><clipPath id="clip-path-14"><path class="cls-1" d="M88.4,368.9a8.23,8.23,0,1,0,1-11.6,8.06,8.06,0,0,0-1,11.6"/></clipPath><clipPath id="clip-path-15"><path class="cls-1" d="M89.6,331.9a6.73,6.73,0,0,0,9.3.8,6.63,6.63,0,0,0,.8-9.3,6.73,6.73,0,0,0-9.3-.8,6.54,6.54,0,0,0-.8,9.3"/></clipPath><clipPath id="clip-path-16"><path class="cls-1" d="M99.1,298.1a4.9,4.9,0,1,0,.6-6.9,4.73,4.73,0,0,0-.6,6.9"/></clipPath><clipPath id="clip-path-17"><path class="cls-1" d="M114.1,269.7a3.34,3.34,0,1,0,.4-4.7,3.33,3.33,0,0,0-.4,4.7"/></clipPath><clipPath id="clip-path-18"><path class="cls-1" d="M247.8,520.2a16.53,16.53,0,1,0,1.9-23.3,16.59,16.59,0,0,0-1.9,23.3"/></clipPath><clipPath id="clip-path-19"><path class="cls-1" d="M74.8,109.3A14.79,14.79,0,1,0,86.7,92.1a14.88,14.88,0,0,0-11.9,17.2"/></clipPath><clipPath id="clip-path-20"><path class="cls-1" d="M121.7,81.7a13.16,13.16,0,1,0,10.6-15.3,12.72,12.72,0,0,0-6.2,2.9,13.1,13.1,0,0,0-4.4,12.4"/></clipPath><clipPath id="clip-path-21"><path class="cls-1" d="M170.2,69.3A11.52,11.52,0,1,0,179.5,56a11.84,11.84,0,0,0-5.4,2.6,11.46,11.46,0,0,0-3.9,10.7"/></clipPath><clipPath id="clip-path-22"><path class="cls-1" d="M214.4,71.5a10,10,0,1,0,3.4-9.3,9.8,9.8,0,0,0-3.4,9.3"/></clipPath><clipPath id="clip-path-23"><path class="cls-1" d="M254.6,82.9a8.18,8.18,0,1,0,6.6-9.5,7.11,7.11,0,0,0-3.8,1.8,8.62,8.62,0,0,0-2.8,7.7"/></clipPath><clipPath id="clip-path-24"><path class="cls-1" d="M287.6,100.6a6.55,6.55,0,1,0,5.3-7.6,6.42,6.42,0,0,0-5.3,7.6"/></clipPath><clipPath id="clip-path-25"><path class="cls-1" d="M313.5,123.7a4.93,4.93,0,1,0,9.7-1.8,5.07,5.07,0,0,0-5.8-4A5.28,5.28,0,0,0,315,119a5.34,5.34,0,0,0-1.5,4.7"/></clipPath><clipPath id="clip-path-26"><path class="cls-1" d="M332,149a3.3,3.3,0,1,0,2.7-3.8,3.48,3.48,0,0,0-1.5.7A3.23,3.23,0,0,0,332,149"/></clipPath><clipPath id="clip-path-27"><path class="cls-1" d="M36.9,155.1A16.46,16.46,0,1,0,50.2,136a16.16,16.16,0,0,0-7.7,3.6,16.78,16.78,0,0,0-5.6,15.5"/></clipPath><clipPath id="clip-path-28"><path class="cls-1" d="M415.4,438.6a14.79,14.79,0,1,0,11.9-17.2,14.34,14.34,0,0,0-6.9,3.3,15,15,0,0,0-5,13.9"/></clipPath><clipPath id="clip-path-29"><path class="cls-1" d="M371.9,465.7a13.16,13.16,0,1,0,10.6-15.3,12.72,12.72,0,0,0-6.2,2.9,13.42,13.42,0,0,0-4.4,12.4"/></clipPath><clipPath id="clip-path-30"><path class="cls-1" d="M326.8,477.4a11.48,11.48,0,1,0,9.3-13.3,11.84,11.84,0,0,0-5.4,2.6,10.9,10.9,0,0,0-3.9,10.7"/></clipPath><clipPath id="clip-path-31"><path class="cls-1" d="M286,474.6a10,10,0,1,0,3.4-9.3,9.64,9.64,0,0,0-3.4,9.3"/></clipPath><clipPath id="clip-path-32"><path class="cls-1" d="M249.2,462.5a8.18,8.18,0,1,0,6.6-9.5,8.39,8.39,0,0,0-3.8,1.8,7.65,7.65,0,0,0-2.8,7.7"/></clipPath><clipPath id="clip-path-33"><path class="cls-1" d="M219.6,444.2a6.55,6.55,0,1,0,5.3-7.6,6.33,6.33,0,0,0-3.1,1.4,6.75,6.75,0,0,0-2.2,6.2"/></clipPath><clipPath id="clip-path-34"><path class="cls-1" d="M197.1,420.4a4.89,4.89,0,0,0,5.7,4,5,5,0,0,0,4-5.7,4.89,4.89,0,0,0-5.7-4,5.28,5.28,0,0,0-2.4,1.1,5.2,5.2,0,0,0-1.6,4.6"/></clipPath><clipPath id="clip-path-35"><path class="cls-1" d="M182,394.4a3.3,3.3,0,1,0,2.7-3.8,3.37,3.37,0,0,0-2.7,3.8"/></clipPath><clipPath id="clip-path-36"><path class="cls-1" d="M449.9,393.5a16.46,16.46,0,1,0,13.3-19.1,16.44,16.44,0,0,0-13.3,19.1"/></clipPath><clipPath id="clip-path-37"><path class="cls-1" d="M17.9,331.5a14.62,14.62,0,1,0,4.3-6.3,16.81,16.81,0,0,0-4.3,6.3"/></clipPath><clipPath id="clip-path-38"><path class="cls-1" d="M18.5,279.2a13.16,13.16,0,1,0,16.8-8,13.23,13.23,0,0,0-13,2.3,15.85,15.85,0,0,0-3.8,5.7"/></clipPath><clipPath id="clip-path-39"><path class="cls-1" d="M33.1,233.1a11.27,11.27,0,1,0,3.3-4.9,13.24,13.24,0,0,0-3.3,4.9"/></clipPath><clipPath id="clip-path-40"><path class="cls-1" d="M58.2,198.2a9.87,9.87,0,1,0,12.6-6,9.72,9.72,0,0,0-9.7,1.8,9.9,9.9,0,0,0-2.9,4.2"/></clipPath><clipPath id="clip-path-41"><path class="cls-1" d="M89.3,171.1a8.3,8.3,0,1,0,2.4-3.4,7.06,7.06,0,0,0-2.4,3.4"/></clipPath><clipPath id="clip-path-42"><path class="cls-1" d="M122.1,153.6a6.58,6.58,0,1,0,8.4-4,6.63,6.63,0,0,0-6.5,1.2,5.86,5.86,0,0,0-1.9,2.8"/></clipPath><clipPath id="clip-path-43"><path class="cls-1" d="M156.1,145a4.93,4.93,0,0,0,9.3,3.3,5,5,0,0,0-7.9-5.5,6.92,6.92,0,0,0-1.4,2.2"/></clipPath><clipPath id="clip-path-44"><path class="cls-1" d="M188.3,143.8a3.29,3.29,0,1,0,4.2-2,3.06,3.06,0,0,0-3.3.6,3.77,3.77,0,0,0-.9,1.4"/></clipPath><clipPath id="clip-path-45"><path class="cls-1" d="M37.7,385a16.65,16.65,0,1,0,4.9-7,15.92,15.92,0,0,0-4.9,7"/></clipPath><clipPath id="clip-path-46"><path class="cls-1" d="M473.6,201.1a14.62,14.62,0,1,0,4.3-6.3,14.52,14.52,0,0,0-4.3,6.3"/></clipPath><clipPath id="clip-path-47"><path class="cls-1" d="M476.3,254.5a13.16,13.16,0,1,0,16.8-8,13.23,13.23,0,0,0-13,2.3,13,13,0,0,0-3.8,5.7"/></clipPath><clipPath id="clip-path-48"><path class="cls-1" d="M464.9,301.7a11.46,11.46,0,0,0,6.9,14.7,11.58,11.58,0,0,0,7.8-21.8,11.43,11.43,0,0,0-11.4,2,13.63,13.63,0,0,0-3.3,5.1"/></clipPath><clipPath id="clip-path-49"><path class="cls-1" d="M443.1,337.7a9.87,9.87,0,1,0,12.6-6,9.72,9.72,0,0,0-9.7,1.8,8.88,8.88,0,0,0-2.9,4.2"/></clipPath><clipPath id="clip-path-50"><path class="cls-1" d="M415.3,365.8a8.24,8.24,0,0,0,4.9,10.5,8.29,8.29,0,0,0,5.6-15.6,8.14,8.14,0,0,0-10.5,5.1"/></clipPath><clipPath id="clip-path-51"><path class="cls-1" d="M385.7,384.3a6.54,6.54,0,1,0,1.9-2.8,7,7,0,0,0-1.9,2.8"/></clipPath><clipPath id="clip-path-52"><path class="cls-1" d="M354.9,394a4.9,4.9,0,0,0,3,6.3,5,5,0,0,0,6.4-3,4.82,4.82,0,0,0-3-6.3,5.08,5.08,0,0,0-6.4,3"/></clipPath><clipPath id="clip-path-53"><path class="cls-1" d="M325.9,396.3a3.29,3.29,0,1,0,4.2-2,3.09,3.09,0,0,0-3.2.6,2.81,2.81,0,0,0-1,1.4"/></clipPath><clipPath id="clip-path-54"><path class="cls-1" d="M450.6,146.6a16.65,16.65,0,1,0,4.9-7,15.92,15.92,0,0,0-4.9,7"/></clipPath></defs><title>logo-vertical</title><g id="Layer_2" data-name="Layer 2"><g id="Ebene_1" data-name="Ebene 1"><path class="cls-1" d="M781.6,164.17a45.24,45.24,0,0,0,4.24,20.77c6.34,13.47,16.73,21,31.74,21.36,14.81.58,26.35-5.58,33.09-18.85,7.89-15.2,8.08-31.17.19-46.37-12.5-24.62-45.79-24.43-59.83-6.35a48,48,0,0,0-9.43,29.44m-5.58.19a51.75,51.75,0,0,1,5.39-24.62c8.08-16,24.82-24.63,43.29-22.32,19.23,2.5,32.7,15.39,36.55,35,2.12,11.16,1.54,22.13-2.69,32.71-6.93,17.31-21.94,26.74-41.56,26.16-18.08-.58-32.7-11.54-38.09-29.05-1.92-5.77-3.08-17.7-2.89-17.89M1046.13,209a.62.62,0,0,1-.39.19c-5.38.39-5.38.39-7.31-4.61-10-25.78-20-51.56-29.82-77.15-.19-.57-.57-1.15-1-2.31a13.74,13.74,0,0,0-1.15,2.7c-10.39,25.78-20.59,51.36-30.78,77.14-1.93,4.81-1.93,4.81-7.7,4.43.39-1,.58-1.93,1-2.89,11.35-28.28,22.9-56.56,34.25-84.84,1-2.5,2.5-2.11,4.42-2.31,1.73-.19,2.89.2,3.66,2.12,11.15,28.47,22.7,56.94,34,85.42a16.63,16.63,0,0,1,.77,2.11M917.42,124.15H885.49v-4.61h69.26v4.61H923v85h-5.58v-85m-186.61-4.81H736v89.84h-5.2Zm0,177.53H807v19.64H754.61v32.73H799.8V368.5H754.61v34.75h53.88v19.63H730.81Zm184.8,62.95a74,74,0,0,1,4.53-26.31,58.64,58.64,0,0,1,32.48-34.12,62.07,62.07,0,0,1,24.93-4.91,77.49,77.49,0,0,1,36.25,9.19v21.65a85.36,85.36,0,0,0-16.36-7.93,48.11,48.11,0,0,0-15.86-2.77,42.3,42.3,0,0,0-16.75,3.28,36.74,36.74,0,0,0-13,9.19,42.25,42.25,0,0,0-8.44,14.22,53,53,0,0,0-3,18.25,52.25,52.25,0,0,0,3,18.13,42.39,42.39,0,0,0,8.44,14.23,36.83,36.83,0,0,0,13,9.31,42.73,42.73,0,0,0,16.75,3.27,48.1,48.1,0,0,0,15.86-2.76,74.92,74.92,0,0,0,16.36-7.94v21.66a77.61,77.61,0,0,1-36.25,9.19,62.07,62.07,0,0,1-24.93-4.91,58.64,58.64,0,0,1-32.48-34.12,68.87,68.87,0,0,1-4.53-25.8Zm204.81,0a74,74,0,0,1,4.54-26.31,61.35,61.35,0,0,1,12.71-20.65,58.27,58.27,0,0,1,19.39-13.47,65.06,65.06,0,0,1,49.59,0A57,57,0,0,1,1226,312.86a61.53,61.53,0,0,1,12.72,20.65,78.67,78.67,0,0,1,0,52.62A61.58,61.58,0,0,1,1226,406.77a58.27,58.27,0,0,1-19.39,13.47,65.06,65.06,0,0,1-49.59,0,57,57,0,0,1-19.39-13.47A61.4,61.4,0,0,1,1125,386.13,73.58,73.58,0,0,1,1120.42,359.82Zm24.68,0a59.57,59.57,0,0,0,2.64,18.12,42.72,42.72,0,0,0,7.55,14.23,33,33,0,0,0,11.59,9.31,35.85,35.85,0,0,0,30,0,31.92,31.92,0,0,0,11.58-9.31,43.92,43.92,0,0,0,7.55-14.23,63.54,63.54,0,0,0,0-36.25,42.72,42.72,0,0,0-7.55-14.23,34.36,34.36,0,0,0-11.58-9.31,34.84,34.84,0,0,0-15-3.27,34.39,34.39,0,0,0-15,3.27,32,32,0,0,0-11.59,9.31,44,44,0,0,0-7.55,14.23A59.59,59.59,0,0,0,1145.1,359.82Zm210.1,41.29a74.87,74.87,0,0,0,17.24,8.81,51.68,51.68,0,0,0,17,3,38.21,38.21,0,0,0,11.71-1.76,30.3,30.3,0,0,0,9.18-4.79,20.63,20.63,0,0,0,5.92-7.3,21,21,0,0,0,2.14-9.31c0-5.42-1.64-9.57-4.91-12.72a41.54,41.54,0,0,0-12.08-7.68,121.43,121.43,0,0,0-15.74-5.66,76.63,76.63,0,0,1-15.73-6.67,40.65,40.65,0,0,1-12.09-10.58c-3.27-4.28-4.91-10.07-4.91-17.24a32.63,32.63,0,0,1,3-14.1,31.64,31.64,0,0,1,8.56-10.95,41.35,41.35,0,0,1,13.22-7.05,52.15,52.15,0,0,1,17-2.52,70.31,70.31,0,0,1,16.11,1.89A86.52,86.52,0,0,1,1427.2,302v14.85c-10.57-6.67-21-10.07-31.47-10.07a36.57,36.57,0,0,0-11.58,1.64,31.29,31.29,0,0,0-8.94,4.53,19.33,19.33,0,0,0-5.79,6.92,19.12,19.12,0,0,0-2,8.94c0,5.29,1.63,9.44,4.91,12.34a41.28,41.28,0,0,0,12.08,7.55c4.79,2,10.07,3.9,15.74,5.66a77.47,77.47,0,0,1,15.73,6.8A39.41,39.41,0,0,1,1428,371.9c3.27,4.28,4.91,10.2,4.91,17.5a32.54,32.54,0,0,1-3.15,14.48,32,32,0,0,1-8.81,11.32,42.16,42.16,0,0,1-13.47,7.31,53.7,53.7,0,0,1-17.12,2.64A77.72,77.72,0,0,1,1372.7,423a87.69,87.69,0,0,1-17.63-6.55V401.11Zm226.08-33-45.19-71.25h17l35.5,57.66,35.75-57.66h17.24l-45.19,71.25v54.76h-15l-.13-54.76Zm164.28,33a74.93,74.93,0,0,0,17.25,8.81,51.62,51.62,0,0,0,17,3,38.17,38.17,0,0,0,11.71-1.76,30.36,30.36,0,0,0,9.19-4.79,20.74,20.74,0,0,0,5.92-7.3,21.12,21.12,0,0,0,2.14-9.31c0-5.42-1.64-9.57-4.91-12.72a41.6,41.6,0,0,0-12.09-7.68,121.27,121.27,0,0,0-15.73-5.66,76.48,76.48,0,0,1-15.74-6.67,40.74,40.74,0,0,1-12.08-10.58c-3.28-4.28-4.91-10.07-4.91-17.24a32.48,32.48,0,0,1,3-14.1,31.52,31.52,0,0,1,8.56-10.95,41.14,41.14,0,0,1,13.22-7.05,52.09,52.09,0,0,1,17-2.52,70.31,70.31,0,0,1,16.11,1.89,86.37,86.37,0,0,1,16.37,5.54v14.85c-10.58-6.67-21-10.07-31.47-10.07a36.53,36.53,0,0,0-11.58,1.64,31.29,31.29,0,0,0-8.94,4.53,19.35,19.35,0,0,0-7.81,15.86c0,5.29,1.64,9.44,4.91,12.34a41.34,41.34,0,0,0,12.09,7.55c4.78,2,10.07,3.9,15.73,5.66a77.32,77.32,0,0,1,15.74,6.8,39.49,39.49,0,0,1,12.08,10.7c3.28,4.28,4.91,10.2,4.91,17.5a32.54,32.54,0,0,1-3.14,14.48,32.14,32.14,0,0,1-8.82,11.32,42,42,0,0,1-13.47,7.31,53.66,53.66,0,0,1-17.12,2.64,77.79,77.79,0,0,1-17.62-2.14,87.6,87.6,0,0,1-17.62-6.55l.12-15.35ZM1970.89,309h-41V296.87h96.55V309h-40.79V422.88H1971L1970.89,309ZM2142,296.87h71.75V309h-57.15v43.81h50v12.08h-50V410.8h58.66v12.08H2142v-126Zm192.85,0H2348l44.69,63.32,44.69-63.32h13.22v126h-14.23V321.17l-38.77,55.26H2388l-38.65-55.26V422.88h-14.22v-126Z"/><path id="a" class="cls-1" d="M303,41.2a14.8,14.8,0,1,0,14.8-14.8A14.77,14.77,0,0,0,303,41.2"/><path id="SVGID" class="cls-1" d="M306.5,50.8a14.83,14.83,0,1,0,1.7-20.9,14.77,14.77,0,0,0-1.7,20.9"/><path class="cls-1" d="M306.5,50.8a14.83,14.83,0,1,0,1.7-20.9,14.77,14.77,0,0,0-1.7,20.9"/><g class="cls-2"><path class="cls-1" d="M288.4,38.8l31.9-27,27,31.9-31.9,27Z"/></g><path id="c" class="cls-1" d="M350.9,66.7a13.2,13.2,0,1,0,13.2-13.2,13.19,13.19,0,0,0-13.2,13.2"/><path id="SVGID-2" data-name="SVGID" class="cls-1" d="M354,75.3a13.2,13.2,0,1,0,1.6-18.6A13.17,13.17,0,0,0,354,75.3"/><path class="cls-1" d="M354,75.3a13.2,13.2,0,1,0,1.6-18.6A13.17,13.17,0,0,0,354,75.3"/><g class="cls-3"><path class="cls-1" d="M337.9,64.5l28.3-24,24,28.3-28.3,24Z"/></g><path id="e" class="cls-1" d="M386.5,101.3A11.5,11.5,0,1,0,398,89.8a11.38,11.38,0,0,0-11.5,11.5"/><path id="SVGID-3" data-name="SVGID" class="cls-1" d="M389.3,108.7a11.5,11.5,0,1,0,1.4-16.2,11.28,11.28,0,0,0-1.4,16.2"/><path class="cls-1" d="M389.3,108.7a11.5,11.5,0,1,0,1.4-16.2,11.28,11.28,0,0,0-1.4,16.2"/><g class="cls-4"><path class="cls-1" d="M375.1,99.4l24.8-21,21,24.8-24.8,21Z"/></g><path id="g" class="cls-1" d="M407.1,139.3a9.9,9.9,0,1,0,9.9-9.9,9.86,9.86,0,0,0-9.9,9.9"/><path id="SVGID-4" data-name="SVGID" class="cls-1" d="M409.5,145.7a9.94,9.94,0,1,0,1.2-14,9.79,9.79,0,0,0-1.2,14"/><path class="cls-1" d="M409.5,145.7a9.94,9.94,0,1,0,1.2-14,9.79,9.79,0,0,0-1.2,14"/><g class="cls-5"><path class="cls-1" d="M397.4,137.7l21.3-18,18,21.3-21.3,18Z"/></g><path id="i" class="cls-1" d="M417.9,178.6a8.2,8.2,0,1,0,8.2-8.2,8.11,8.11,0,0,0-8.2,8.2"/><path id="SVGID-5" data-name="SVGID" class="cls-1" d="M419.9,184a8.23,8.23,0,1,0,1-11.6,8.05,8.05,0,0,0-1,11.6"/><path class="cls-1" d="M419.9,184a8.23,8.23,0,1,0,1-11.6,8.05,8.05,0,0,0-1,11.6"/><g class="cls-6"><path class="cls-1" d="M409.9,177.2l17.7-15,15,17.7-17.7,15Z"/></g><path id="k" class="cls-1" d="M419.6,214.6a6.6,6.6,0,1,0,6.6-6.6,6.59,6.59,0,0,0-6.6,6.6"/><path id="SVGID-6" data-name="SVGID" class="cls-1" d="M421.2,218.9a6.6,6.6,0,1,0,.8-9.3,6.45,6.45,0,0,0-.8,9.3"/><path class="cls-1" d="M421.2,218.9a6.6,6.6,0,1,0,.8-9.3,6.45,6.45,0,0,0-.8,9.3"/><g class="cls-7"><path class="cls-1" d="M413.1,213.5l14.2-12,12,14.2-14.2,12Z"/></g><path id="m" class="cls-1" d="M413,247.3a4.9,4.9,0,1,0,4.9-4.9,4.78,4.78,0,0,0-4.9,4.9"/><path id="SVGID-7" data-name="SVGID" class="cls-1" d="M414.2,250.5a4.9,4.9,0,1,0,.6-6.9,4.73,4.73,0,0,0-.6,6.9"/><path class="cls-1" d="M414.2,250.5a4.9,4.9,0,1,0,.6-6.9,4.73,4.73,0,0,0-.6,6.9"/><g class="cls-8"><path class="cls-1" d="M408.1,246.5l10.6-9,9,10.6-10.6,9Z"/></g><path id="o" class="cls-1" d="M400.8,274.6a3.3,3.3,0,1,0,3.3-3.3,3.33,3.33,0,0,0-3.3,3.3"/><path id="SVGID-8" data-name="SVGID" class="cls-1" d="M401.6,276.7a3.34,3.34,0,1,0,.4-4.7,3.33,3.33,0,0,0-.4,4.7"/><path class="cls-1" d="M401.6,276.7a3.34,3.34,0,1,0,.4-4.7,3.33,3.33,0,0,0-.4,4.7"/><g class="cls-9"><path class="cls-1" d="M397.6,274l7.1-6,6,7.1-7.1,6Z"/></g><path id="q" class="cls-1" d="M243.9,32.7a16.5,16.5,0,1,0,16.5-16.5,16.52,16.52,0,0,0-16.5,16.5"/><path id="SVGID-9" data-name="SVGID" class="cls-1" d="M247.8,43.4a16.53,16.53,0,1,0,1.9-23.3,16.59,16.59,0,0,0-1.9,23.3"/><path class="cls-1" d="M247.8,43.4a16.53,16.53,0,1,0,1.9-23.3,16.59,16.59,0,0,0-1.9,23.3"/><g class="cls-10"><path class="cls-1" d="M227.7,30,263.1,0l30,35.4-35.4,30Z"/></g><path id="s" class="cls-1" d="M188.1,500.9a14.8,14.8,0,1,0,14.8-14.8,14.77,14.77,0,0,0-14.8,14.8"/><path id="SVGID-10" data-name="SVGID" class="cls-1" d="M191.6,510.5a14.83,14.83,0,1,0,1.7-20.9,14.77,14.77,0,0,0-1.7,20.9"/><path class="cls-1" d="M191.6,510.5a14.83,14.83,0,1,0,1.7-20.9,14.77,14.77,0,0,0-1.7,20.9"/><g class="cls-11"><path class="cls-1" d="M173.6,498.5l31.9-27,27,31.9-31.9,27Z"/></g><path id="u" class="cls-1" d="M143.5,475.5a13.2,13.2,0,1,0,13.2-13.2,13.19,13.19,0,0,0-13.2,13.2"/><path id="SVGID-11" data-name="SVGID" class="cls-1" d="M146.6,484a13.2,13.2,0,1,0,1.6-18.6,13.17,13.17,0,0,0-1.6,18.6"/><path class="cls-1" d="M146.6,484a13.2,13.2,0,1,0,1.6-18.6,13.17,13.17,0,0,0-1.6,18.6"/><g class="cls-12"><path class="cls-1" d="M130.5,473.3l28.3-24,24,28.3-28.3,24Z"/></g><path id="w" class="cls-1" d="M111.2,440.9a11.5,11.5,0,1,0,11.5-11.5,11.5,11.5,0,0,0-11.5,11.5"/><path id="SVGID-12" data-name="SVGID" class="cls-1" d="M113.9,448.4a11.5,11.5,0,1,0,1.4-16.2,11.55,11.55,0,0,0-1.4,16.2"/><path class="cls-1" d="M113.9,448.4a11.5,11.5,0,1,0,1.4-16.2,11.55,11.55,0,0,0-1.4,16.2"/><g class="cls-13"><path class="cls-1" d="M99.8,439l24.8-21,21,24.8-24.8,21Z"/></g><path id="y" class="cls-1" d="M93.9,402.8a9.9,9.9,0,1,0,9.9-9.9,10,10,0,0,0-9.9,9.9"/><path id="SVGID-13" data-name="SVGID" class="cls-1" d="M96.2,409.2a9.94,9.94,0,1,0,1.2-14,10,10,0,0,0-1.2,14"/><path class="cls-1" d="M96.2,409.2a9.94,9.94,0,1,0,1.2-14,10,10,0,0,0-1.2,14"/><g class="cls-14"><path class="cls-1" d="M84.1,401.2l21.2-18,18,21.2-21.2,18Z"/></g><path id="A-2" data-name="A" class="cls-1" d="M86.4,363.6a8.2,8.2,0,1,0,8.2-8.2,8.11,8.11,0,0,0-8.2,8.2"/><path id="SVGID-14" data-name="SVGID" class="cls-1" d="M88.4,368.9a8.23,8.23,0,1,0,1-11.6,8.06,8.06,0,0,0-1,11.6"/><path class="cls-1" d="M88.4,368.9a8.23,8.23,0,1,0,1-11.6,8.06,8.06,0,0,0-1,11.6"/><g class="cls-15"><path class="cls-1" d="M78.3,362.3l17.7-15L111,365,93.3,380Z"/></g><path id="C-2" data-name="C" class="cls-1" d="M88,327.6a6.6,6.6,0,1,0,6.6-6.6,6.66,6.66,0,0,0-6.6,6.6"/><path id="SVGID-15" data-name="SVGID" class="cls-1" d="M89.6,331.9a6.73,6.73,0,0,0,9.3.8,6.63,6.63,0,0,0,.8-9.3,6.73,6.73,0,0,0-9.3-.8,6.54,6.54,0,0,0-.8,9.3"/><path class="cls-1" d="M89.6,331.9a6.73,6.73,0,0,0,9.3.8,6.63,6.63,0,0,0,.8-9.3,6.73,6.73,0,0,0-9.3-.8,6.54,6.54,0,0,0-.8,9.3"/><g class="cls-16"><path class="cls-1" d="M81.5,326.5l14.2-12,12,14.2-14.2,12Z"/></g><path id="E-2" data-name="E" class="cls-1" d="M97.9,294.9a4.9,4.9,0,1,0,4.9-4.9,4.78,4.78,0,0,0-4.9,4.9"/><path id="SVGID-16" data-name="SVGID" class="cls-1" d="M99.1,298.1a4.9,4.9,0,1,0,.6-6.9,4.73,4.73,0,0,0-.6,6.9"/><path class="cls-1" d="M99.1,298.1a4.9,4.9,0,1,0,.6-6.9,4.73,4.73,0,0,0-.6,6.9"/><g class="cls-17"><path class="cls-1" d="M93,294l10.6-9,9,10.6-10.6,9Z"/></g><path id="G-2" data-name="G" class="cls-1" d="M113.3,267.5a3.3,3.3,0,1,0,3.3-3.3,3.33,3.33,0,0,0-3.3,3.3"/><path id="SVGID-17" data-name="SVGID" class="cls-1" d="M114.1,269.7a3.34,3.34,0,1,0,.4-4.7,3.33,3.33,0,0,0-.4,4.7"/><path class="cls-1" d="M114.1,269.7a3.34,3.34,0,1,0,.4-4.7,3.33,3.33,0,0,0-.4,4.7"/><g class="cls-18"><path class="cls-1" d="M110.1,267l7.1-6,6,7.1-7.1,6Z"/></g><path id="I-2" data-name="I" class="cls-1" d="M243.9,509.5A16.5,16.5,0,1,0,260.4,493a16.52,16.52,0,0,0-16.5,16.5"/><path id="SVGID-18" data-name="SVGID" class="cls-1" d="M247.8,520.2a16.53,16.53,0,1,0,1.9-23.3,16.59,16.59,0,0,0-1.9,23.3"/><path class="cls-1" d="M247.8,520.2a16.53,16.53,0,1,0,1.9-23.3,16.59,16.59,0,0,0-1.9,23.3"/><g class="cls-19"><path class="cls-1" d="M227.7,506.8l35.4-30,30,35.4-35.4,30Z"/></g><path id="K-2" data-name="K" class="cls-1" d="M77.2,99a14.79,14.79,0,1,0,20.2-5.4,15.23,15.23,0,0,0-7.4-2A14.6,14.6,0,0,0,77.2,99"/><path id="SVGID-19" data-name="SVGID" class="cls-1" d="M74.8,109.3A14.79,14.79,0,1,0,86.7,92.1a14.88,14.88,0,0,0-11.9,17.2"/><path class="cls-1" d="M74.8,109.3A14.79,14.79,0,1,0,86.7,92.1a14.88,14.88,0,0,0-11.9,17.2"/><g class="cls-20"><path class="cls-1" d="M57.4,104.9l35.4-30,29.8,35.2-35.4,30Z"/></g><path id="M-2" data-name="M" class="cls-1" d="M123.8,72.5a13.1,13.1,0,1,0,11.4-6.6,13.2,13.2,0,0,0-11.4,6.6"/><path id="SVGID-20" data-name="SVGID" class="cls-1" d="M121.7,81.7a13.16,13.16,0,1,0,10.6-15.3,12.72,12.72,0,0,0-6.2,2.9,13.1,13.1,0,0,0-4.4,12.4"/><path class="cls-1" d="M121.7,81.7a13.16,13.16,0,1,0,10.6-15.3,12.72,12.72,0,0,0-6.2,2.9,13.1,13.1,0,0,0-4.4,12.4"/><g class="cls-21"><path class="cls-1" d="M106.3,77.7l31.5-26.6,26.5,31.3L132.8,109Z"/></g><path id="O-2" data-name="O" class="cls-1" d="M172.1,61.2A11.59,11.59,0,0,0,176.3,77,11.45,11.45,0,0,0,192,72.8,11.59,11.59,0,0,0,187.8,57a11.94,11.94,0,0,0-5.8-1.5,11.6,11.6,0,0,0-9.9,5.7"/><path id="SVGID-21" data-name="SVGID" class="cls-1" d="M170.2,69.3A11.52,11.52,0,1,0,179.5,56a11.84,11.84,0,0,0-5.4,2.6,11.46,11.46,0,0,0-3.9,10.7"/><path class="cls-1" d="M170.2,69.3A11.52,11.52,0,1,0,179.5,56a11.84,11.84,0,0,0-5.4,2.6,11.46,11.46,0,0,0-3.9,10.7"/><g class="cls-22"><path class="cls-1" d="M156.8,65.8l27.6-23.3,23.2,27.4L180,93.2Z"/></g><path id="Q-2" data-name="Q" class="cls-1" d="M216,64.6A9.88,9.88,0,1,0,229.5,61a10.54,10.54,0,0,0-4.9-1.3,9.81,9.81,0,0,0-8.6,4.9"/><path id="SVGID-22" data-name="SVGID" class="cls-1" d="M214.4,71.5a10,10,0,1,0,3.4-9.3,9.8,9.8,0,0,0-3.4,9.3"/><path class="cls-1" d="M214.4,71.5a10,10,0,1,0,3.4-9.3,9.8,9.8,0,0,0-3.4,9.3"/><g class="cls-23"><path class="cls-1" d="M202.9,68.5l23.6-20,19.8,23.4-23.6,20Z"/></g><path id="S-2" data-name="S" class="cls-1" d="M256,77.1a8.2,8.2,0,1,0,11.2-3,7.67,7.67,0,0,0-4.1-1.1,8.39,8.39,0,0,0-7.1,4.1"/><path id="SVGID-23" data-name="SVGID" class="cls-1" d="M254.6,82.9a8.18,8.18,0,1,0,6.6-9.5,7.11,7.11,0,0,0-3.8,1.8,8.62,8.62,0,0,0-2.8,7.7"/><path class="cls-1" d="M254.6,82.9a8.18,8.18,0,1,0,6.6-9.5,7.11,7.11,0,0,0-3.8,1.8,8.62,8.62,0,0,0-2.8,7.7"/><g class="cls-24"><path class="cls-1" d="M245.1,80.4l19.7-16.7,16.5,19.5L261.6,99.9Z"/></g><path id="U-2" data-name="U" class="cls-1" d="M288.6,96a6.59,6.59,0,1,0,9-2.4,6.55,6.55,0,0,0-9,2.4"/><path id="SVGID-24" data-name="SVGID" class="cls-1" d="M287.6,100.6a6.55,6.55,0,1,0,5.3-7.6,6.42,6.42,0,0,0-5.3,7.6"/><path class="cls-1" d="M287.6,100.6a6.55,6.55,0,1,0,5.3-7.6,6.42,6.42,0,0,0-5.3,7.6"/><g class="cls-25"><path class="cls-1" d="M279.9,98.6l15.7-13.3,13.2,15.6-15.7,13.3Z"/></g><path id="W-2" data-name="W" class="cls-1" d="M314.3,120.3a4.8,4.8,0,0,0,1.8,6.7,4.93,4.93,0,0,0,6.8-1.8,5,5,0,0,0-1.8-6.8,5.53,5.53,0,0,0-2.5-.7,5.14,5.14,0,0,0-4.3,2.6"/><path id="SVGID-25" data-name="SVGID" class="cls-1" d="M313.5,123.7a4.93,4.93,0,1,0,9.7-1.8,5.07,5.07,0,0,0-5.8-4A5.28,5.28,0,0,0,315,119a5.34,5.34,0,0,0-1.5,4.7"/><path class="cls-1" d="M313.5,123.7a4.93,4.93,0,1,0,9.7-1.8,5.07,5.07,0,0,0-5.8-4A5.28,5.28,0,0,0,315,119a5.34,5.34,0,0,0-1.5,4.7"/><g class="cls-26"><path class="cls-1" d="M307.7,122.2l11.8-9.9,9.9,11.8L317.6,134Z"/></g><path id="Y-2" data-name="Y" class="cls-1" d="M332.5,146.7a3.29,3.29,0,1,0,4.5-1.2,3.17,3.17,0,0,0-1.6-.4,3.36,3.36,0,0,0-2.9,1.6"/><path id="SVGID-26" data-name="SVGID" class="cls-1" d="M332,149a3.3,3.3,0,1,0,2.7-3.8,3.48,3.48,0,0,0-1.5.7A3.23,3.23,0,0,0,332,149"/><path class="cls-1" d="M332,149a3.3,3.3,0,1,0,2.7-3.8,3.48,3.48,0,0,0-1.5.7A3.23,3.23,0,0,0,332,149"/><g class="cls-27"><path class="cls-1" d="M328.1,148.1l7.9-6.7,6.6,7.8-7.9,6.7Z"/></g><path id="aa" class="cls-1" d="M39.6,143.6a16.47,16.47,0,1,0,22.5-6,16.29,16.29,0,0,0-8.2-2.2,16.69,16.69,0,0,0-14.3,8.2"/><path id="SVGID-27" data-name="SVGID" class="cls-1" d="M36.9,155.1A16.46,16.46,0,1,0,50.2,136a16.16,16.16,0,0,0-7.7,3.6,16.78,16.78,0,0,0-5.6,15.5"/><path class="cls-1" d="M36.9,155.1A16.46,16.46,0,1,0,50.2,136a16.16,16.16,0,0,0-7.7,3.6,16.78,16.78,0,0,0-5.6,15.5"/><g class="cls-28"><path class="cls-1" d="M17.7,150.1,57,116.8l33.1,39.1L50.8,189.2Z"/></g><path id="ac" class="cls-1" d="M417.9,428.3a14.79,14.79,0,1,0,20.2-5.4,15.23,15.23,0,0,0-7.4-2,14.93,14.93,0,0,0-12.8,7.4"/><path id="SVGID-28" data-name="SVGID" class="cls-1" d="M415.4,438.6a14.79,14.79,0,1,0,11.9-17.2,14.34,14.34,0,0,0-6.9,3.3,15,15,0,0,0-5,13.9"/><path class="cls-1" d="M415.4,438.6a14.79,14.79,0,1,0,11.9-17.2,14.34,14.34,0,0,0-6.9,3.3,15,15,0,0,0-5,13.9"/><g class="cls-29"><path class="cls-1" d="M398.1,434.2l35.4-30,29.8,35.2-35.4,30Z"/></g><path id="ae" class="cls-1" d="M374.1,456.5a13.1,13.1,0,1,0,11.4-6.6,13.34,13.34,0,0,0-11.4,6.6"/><path id="SVGID-29" data-name="SVGID" class="cls-1" d="M371.9,465.7a13.16,13.16,0,1,0,10.6-15.3,12.72,12.72,0,0,0-6.2,2.9,13.42,13.42,0,0,0-4.4,12.4"/><path class="cls-1" d="M371.9,465.7a13.16,13.16,0,1,0,10.6-15.3,12.72,12.72,0,0,0-6.2,2.9,13.42,13.42,0,0,0-4.4,12.4"/><g class="cls-30"><path class="cls-1" d="M356.5,461.7,388,435.1l26.5,31.3L383,493Z"/></g><path id="ag" class="cls-1" d="M328.7,469.4a11.49,11.49,0,1,0,15.7-4.2,11.94,11.94,0,0,0-5.8-1.5,11.16,11.16,0,0,0-9.9,5.7"/><path id="SVGID-30" data-name="SVGID" class="cls-1" d="M326.8,477.4a11.48,11.48,0,1,0,9.3-13.3,11.84,11.84,0,0,0-5.4,2.6,10.9,10.9,0,0,0-3.9,10.7"/><path class="cls-1" d="M326.8,477.4a11.48,11.48,0,1,0,9.3-13.3,11.84,11.84,0,0,0-5.4,2.6,10.9,10.9,0,0,0-3.9,10.7"/><g class="cls-31"><path class="cls-1" d="M313.3,473.9l27.6-23.3L364.1,478l-27.7,23.3Z"/></g><path id="ai" class="cls-1" d="M287.6,467.7a9.88,9.88,0,1,0,13.5-3.6,10.54,10.54,0,0,0-4.9-1.3,9.72,9.72,0,0,0-8.6,4.9"/><path id="SVGID-31" data-name="SVGID" class="cls-1" d="M286,474.6a10,10,0,1,0,3.4-9.3,9.64,9.64,0,0,0-3.4,9.3"/><path class="cls-1" d="M286,474.6a10,10,0,1,0,3.4-9.3,9.64,9.64,0,0,0-3.4,9.3"/><g class="cls-32"><path class="cls-1" d="M274.4,471.6l23.6-20L317.8,475l-23.6,20Z"/></g><path id="ak" class="cls-1" d="M250.5,456.8a8.2,8.2,0,1,0,11.2-3,8.69,8.69,0,0,0-4.1-1.1,7.86,7.86,0,0,0-7.1,4.1"/><path id="SVGID-32" data-name="SVGID" class="cls-1" d="M249.2,462.5a8.18,8.18,0,1,0,6.6-9.5,8.39,8.39,0,0,0-3.8,1.8,7.65,7.65,0,0,0-2.8,7.7"/><path class="cls-1" d="M249.2,462.5a8.18,8.18,0,1,0,6.6-9.5,8.39,8.39,0,0,0-3.8,1.8,7.65,7.65,0,0,0-2.8,7.7"/><g class="cls-33"><path class="cls-1" d="M239.5,460.1l19.7-16.7,16.5,19.5L256,479.6Z"/></g><path id="am" class="cls-1" d="M220.7,439.6a6.59,6.59,0,1,0,9-2.4,6.55,6.55,0,0,0-9,2.4"/><path id="SVGID-33" data-name="SVGID" class="cls-1" d="M219.6,444.2a6.55,6.55,0,1,0,5.3-7.6,6.33,6.33,0,0,0-3.1,1.4,6.75,6.75,0,0,0-2.2,6.2"/><path class="cls-1" d="M219.6,444.2a6.55,6.55,0,1,0,5.3-7.6,6.33,6.33,0,0,0-3.1,1.4,6.75,6.75,0,0,0-2.2,6.2"/><g class="cls-34"><path class="cls-1" d="M211.9,442.2l15.7-13.3,13.2,15.6-15.7,13.3Z"/></g><path id="ao" class="cls-1" d="M197.9,416.9a4.8,4.8,0,0,0,1.8,6.7,4.88,4.88,0,0,0,6.7-1.8,4.8,4.8,0,0,0-1.8-6.7,5.53,5.53,0,0,0-2.5-.7,5.39,5.39,0,0,0-4.2,2.5"/><path id="SVGID-34" data-name="SVGID" class="cls-1" d="M197.1,420.4a4.89,4.89,0,0,0,5.7,4,5,5,0,0,0,4-5.7,4.89,4.89,0,0,0-5.7-4,5.28,5.28,0,0,0-2.4,1.1,5.2,5.2,0,0,0-1.6,4.6"/><path class="cls-1" d="M197.1,420.4a4.89,4.89,0,0,0,5.7,4,5,5,0,0,0,4-5.7,4.89,4.89,0,0,0-5.7-4,5.28,5.28,0,0,0-2.4,1.1,5.2,5.2,0,0,0-1.6,4.6"/><g class="cls-35"><path class="cls-1" d="M191.4,418.9l11.8-10,9.9,11.8-11.8,10Z"/></g><path id="aq" class="cls-1" d="M182.6,392.1a3.29,3.29,0,1,0,4.5-1.2,3.17,3.17,0,0,0-1.6-.4,3.36,3.36,0,0,0-2.9,1.6"/><path id="SVGID-35" data-name="SVGID" class="cls-1" d="M182,394.4a3.3,3.3,0,1,0,2.7-3.8,3.37,3.37,0,0,0-2.7,3.8"/><path class="cls-1" d="M182,394.4a3.3,3.3,0,1,0,2.7-3.8,3.37,3.37,0,0,0-2.7,3.8"/><g class="cls-36"><path class="cls-1" d="M178.2,393.5l7.9-6.7,6.7,7.9-7.9,6.7Z"/></g><path id="as" class="cls-1" d="M452.6,382a16.47,16.47,0,1,0,22.5-6,16.51,16.51,0,0,0-22.5,6"/><path id="SVGID-36" data-name="SVGID" class="cls-1" d="M449.9,393.5a16.46,16.46,0,1,0,13.3-19.1,16.44,16.44,0,0,0-13.3,19.1"/><path class="cls-1" d="M449.9,393.5a16.46,16.46,0,1,0,13.3-19.1,16.44,16.44,0,0,0-13.3,19.1"/><g class="cls-37"><path class="cls-1" d="M430.6,388.5l39.3-33.3L503,394.3l-39.3,33.3Z"/></g><path id="au" class="cls-1" d="M25.2,323.4a14.79,14.79,0,1,0,20.2,5.4,14.6,14.6,0,0,0-12.8-7.4,15.23,15.23,0,0,0-7.4,2"/><path id="SVGID-37" data-name="SVGID" class="cls-1" d="M17.9,331.5a14.62,14.62,0,1,0,4.3-6.3,16.81,16.81,0,0,0-4.3,6.3"/><path class="cls-1" d="M17.9,331.5a14.62,14.62,0,1,0,4.3-6.3,16.81,16.81,0,0,0-4.3,6.3"/><g class="cls-38"><path class="cls-1" d="M0,334.7l35.4-30,29.8,35.2-35.4,30Z"/></g><path id="aw" class="cls-1" d="M24.9,272a13.1,13.1,0,1,0,6.6-1.8,14.54,14.54,0,0,0-6.6,1.8"/><path id="SVGID-38" data-name="SVGID" class="cls-1" d="M18.5,279.2a13.16,13.16,0,1,0,16.8-8,13.23,13.23,0,0,0-13,2.3,15.85,15.85,0,0,0-3.8,5.7"/><path class="cls-1" d="M18.5,279.2a13.16,13.16,0,1,0,16.8-8,13.23,13.23,0,0,0-13,2.3,15.85,15.85,0,0,0-3.8,5.7"/><g class="cls-39"><path class="cls-1" d="M2.6,282.1l31.5-26.6,26.5,31.3L29.1,313.4Z"/></g><path id="ay" class="cls-1" d="M38.7,226.8a11.34,11.34,0,1,0,5.7-1.6,13.63,13.63,0,0,0-5.7,1.6"/><path id="SVGID-39" data-name="SVGID" class="cls-1" d="M33.1,233.1a11.27,11.27,0,1,0,3.3-4.9,13.24,13.24,0,0,0-3.3,4.9"/><path class="cls-1" d="M33.1,233.1a11.27,11.27,0,1,0,3.3-4.9,13.24,13.24,0,0,0-3.3,4.9"/><g class="cls-40"><path class="cls-1" d="M19.2,235.6l27.6-23.3L70,239.7,42.4,263Z"/></g><path id="aA-2" data-name="aA" class="cls-1" d="M63,192.8a9.88,9.88,0,1,0,13.5,3.6,9.81,9.81,0,0,0-8.6-4.9,9,9,0,0,0-4.9,1.3"/><path id="SVGID-40" data-name="SVGID" class="cls-1" d="M58.2,198.2a9.87,9.87,0,1,0,12.6-6,9.72,9.72,0,0,0-9.7,1.8,9.9,9.9,0,0,0-2.9,4.2"/><path class="cls-1" d="M58.2,198.2a9.87,9.87,0,1,0,12.6-6,9.72,9.72,0,0,0-9.7,1.8,9.9,9.9,0,0,0-2.9,4.2"/><g class="cls-41"><path class="cls-1" d="M46.2,200.2l23.6-20,19.8,23.4L66,223.6Z"/></g><path id="aC-2" data-name="aC" class="cls-1" d="M93.3,166.6a8.2,8.2,0,1,0,4.1-1.1,8.69,8.69,0,0,0-4.1,1.1"/><path id="SVGID-41" data-name="SVGID" class="cls-1" d="M89.3,171.1a8.3,8.3,0,1,0,2.4-3.4,7.06,7.06,0,0,0-2.4,3.4"/><path class="cls-1" d="M89.3,171.1a8.3,8.3,0,1,0,2.4-3.4,7.06,7.06,0,0,0-2.4,3.4"/><g class="cls-42"><path class="cls-1" d="M79.3,172.9,99,156.2l16.5,19.5L95.8,192.4Z"/></g><path id="aE-2" data-name="aE" class="cls-1" d="M125.3,150a6.55,6.55,0,1,0,3.3-.9,7.39,7.39,0,0,0-3.3.9"/><path id="SVGID-42" data-name="SVGID" class="cls-1" d="M122.1,153.6a6.58,6.58,0,1,0,8.4-4,6.63,6.63,0,0,0-6.5,1.2,5.86,5.86,0,0,0-1.9,2.8"/><path class="cls-1" d="M122.1,153.6a6.58,6.58,0,1,0,8.4-4,6.63,6.63,0,0,0-6.5,1.2,5.86,5.86,0,0,0-1.9,2.8"/><g class="cls-43"><path class="cls-1" d="M114.1,155.1l15.7-13.3L143,157.4l-15.6,13.3Z"/></g><path id="aG-2" data-name="aG" class="cls-1" d="M158.5,142.3a4.91,4.91,0,0,0,4.9,8.5,5,5,0,0,0-2.5-9.3,6.17,6.17,0,0,0-2.4.8"/><path id="SVGID-43" data-name="SVGID" class="cls-1" d="M156.1,145a4.93,4.93,0,0,0,9.3,3.3,5,5,0,0,0-7.9-5.5,6.92,6.92,0,0,0-1.4,2.2"/><path class="cls-1" d="M156.1,145a4.93,4.93,0,0,0,9.3,3.3,5,5,0,0,0-7.9-5.5,6.92,6.92,0,0,0-1.4,2.2"/><g class="cls-44"><path class="cls-1" d="M150.2,146,162,136l9.9,11.8-11.8,10Z"/></g><path id="aI-2" data-name="aI" class="cls-1" d="M189.9,142a3.15,3.15,0,1,0,1.6-.5,3.68,3.68,0,0,0-1.6.5"/><path id="SVGID-44" data-name="SVGID" class="cls-1" d="M188.3,143.8a3.29,3.29,0,1,0,4.2-2,3.06,3.06,0,0,0-3.3.6,3.77,3.77,0,0,0-.9,1.4"/><path class="cls-1" d="M188.3,143.8a3.29,3.29,0,1,0,4.2-2,3.06,3.06,0,0,0-3.3.6,3.77,3.77,0,0,0-.9,1.4"/><g class="cls-45"><path class="cls-1" d="M184.3,144.5l7.9-6.7,6.6,7.8-7.9,6.7Z"/></g><path id="aK-2" data-name="aK" class="cls-1" d="M45.7,376a16.51,16.51,0,1,0,8.2-2.2,16.38,16.38,0,0,0-8.2,2.2"/><path id="SVGID-45" data-name="SVGID" class="cls-1" d="M37.7,385a16.65,16.65,0,1,0,4.9-7,15.92,15.92,0,0,0-4.9,7"/><path class="cls-1" d="M37.7,385a16.65,16.65,0,1,0,4.9-7,15.92,15.92,0,0,0-4.9,7"/><g class="cls-46"><path class="cls-1" d="M17.7,388.5,57,355.2l33.1,39.1L50.8,427.6Z"/></g><path id="aM-2" data-name="aM" class="cls-1" d="M480.8,193a14.79,14.79,0,1,0,20.2,5.4,14.6,14.6,0,0,0-12.8-7.4,14.94,14.94,0,0,0-7.4,2"/><path id="SVGID-46" data-name="SVGID" class="cls-1" d="M473.6,201.1a14.62,14.62,0,1,0,4.3-6.3,14.52,14.52,0,0,0-4.3,6.3"/><path class="cls-1" d="M473.6,201.1a14.62,14.62,0,1,0,4.3-6.3,14.52,14.52,0,0,0-4.3,6.3"/><g class="cls-47"><path class="cls-1" d="M455.6,204.4l35.4-30,29.8,35.2-35.4,30Z"/></g><path id="aO-2" data-name="aO" class="cls-1" d="M482.7,247.3a13.1,13.1,0,1,0,6.6-1.8,12.85,12.85,0,0,0-6.6,1.8"/><path id="SVGID-47" data-name="SVGID" class="cls-1" d="M476.3,254.5a13.16,13.16,0,1,0,16.8-8,13.23,13.23,0,0,0-13,2.3,13,13,0,0,0-3.8,5.7"/><path class="cls-1" d="M476.3,254.5a13.16,13.16,0,1,0,16.8-8,13.23,13.23,0,0,0-13,2.3,13,13,0,0,0-3.8,5.7"/><g class="cls-48"><path class="cls-1" d="M460.2,257.3l31.5-26.6L518.2,262l-31.5,26.6Z"/></g><path id="aQ-2" data-name="aQ" class="cls-1" d="M470.5,295.4a11.26,11.26,0,1,0,5.8-1.7,12.18,12.18,0,0,0-5.8,1.7"/><path id="SVGID-48" data-name="SVGID" class="cls-1" d="M464.9,301.7a11.46,11.46,0,0,0,6.9,14.7,11.58,11.58,0,0,0,7.8-21.8,11.43,11.43,0,0,0-11.4,2,13.63,13.63,0,0,0-3.3,5.1"/><path class="cls-1" d="M464.9,301.7a11.46,11.46,0,0,0,6.9,14.7,11.58,11.58,0,0,0,7.8-21.8,11.43,11.43,0,0,0-11.4,2,13.63,13.63,0,0,0-3.3,5.1"/><g class="cls-49"><path class="cls-1" d="M450.9,304.1l27.6-23.3,23.2,27.4-27.6,23.3Z"/></g><path id="aS-2" data-name="aS" class="cls-1" d="M447.9,332.3a9.88,9.88,0,1,0,13.5,3.6,9.81,9.81,0,0,0-8.6-4.9,8.61,8.61,0,0,0-4.9,1.3"/><path id="SVGID-49" data-name="SVGID" class="cls-1" d="M443.1,337.7a9.87,9.87,0,1,0,12.6-6,9.72,9.72,0,0,0-9.7,1.8,8.88,8.88,0,0,0-2.9,4.2"/><path class="cls-1" d="M443.1,337.7a9.87,9.87,0,1,0,12.6-6,9.72,9.72,0,0,0-9.7,1.8,8.88,8.88,0,0,0-2.9,4.2"/><g class="cls-50"><path class="cls-1" d="M431.2,339.8l23.6-20,19.8,23.4-23.6,20Z"/></g><path id="aU-2" data-name="aU" class="cls-1" d="M419.3,361.3a8.2,8.2,0,0,0-3,11.2,8.27,8.27,0,1,0,7.2-12.4,8.87,8.87,0,0,0-4.2,1.2"/><path id="SVGID-50" data-name="SVGID" class="cls-1" d="M415.3,365.8a8.24,8.24,0,0,0,4.9,10.5,8.29,8.29,0,0,0,5.6-15.6,8.14,8.14,0,0,0-10.5,5.1"/><path class="cls-1" d="M415.3,365.8a8.24,8.24,0,0,0,4.9,10.5,8.29,8.29,0,0,0,5.6-15.6,8.14,8.14,0,0,0-10.5,5.1"/><g class="cls-51"><path class="cls-1" d="M405.3,367.6,425,350.9l16.5,19.5-19.7,16.7Z"/></g><path id="aW-2" data-name="aW" class="cls-1" d="M388.9,380.7a6.59,6.59,0,1,0,9,2.4,6.55,6.55,0,0,0-9-2.4"/><path id="SVGID-51" data-name="SVGID" class="cls-1" d="M385.7,384.3a6.54,6.54,0,1,0,1.9-2.8,7,7,0,0,0-1.9,2.8"/><path class="cls-1" d="M385.7,384.3a6.54,6.54,0,1,0,1.9-2.8,7,7,0,0,0-1.9,2.8"/><g class="cls-52"><path class="cls-1" d="M377.7,385.7l15.7-13.3L406.6,388l-15.7,13.3Z"/></g><path id="aY-2" data-name="aY" class="cls-1" d="M357.3,391.3a4.84,4.84,0,0,0-1.8,6.7,4.93,4.93,0,0,0,6.8,1.8,4.84,4.84,0,0,0,1.8-6.7,5,5,0,0,0-4.3-2.5,7.17,7.17,0,0,0-2.5.7"/><path id="SVGID-52" data-name="SVGID" class="cls-1" d="M354.9,394a4.9,4.9,0,0,0,3,6.3,5,5,0,0,0,6.4-3,4.82,4.82,0,0,0-3-6.3,5.08,5.08,0,0,0-6.4,3"/><path class="cls-1" d="M354.9,394a4.9,4.9,0,0,0,3,6.3,5,5,0,0,0,6.4-3,4.82,4.82,0,0,0-3-6.3,5.08,5.08,0,0,0-6.4,3"/><g class="cls-53"><path class="cls-1" d="M348.9,395.2l11.8-10,9.9,11.8-11.8,10Z"/></g><path id="ba" class="cls-1" d="M327.5,394.5a3.29,3.29,0,1,0,4.5,1.2,3.11,3.11,0,0,0-2.8-1.6,2.54,2.54,0,0,0-1.7.4"/><path id="SVGID-53" data-name="SVGID" class="cls-1" d="M325.9,396.3a3.29,3.29,0,1,0,4.2-2,3.09,3.09,0,0,0-3.2.6,2.81,2.81,0,0,0-1,1.4"/><path class="cls-1" d="M325.9,396.3a3.29,3.29,0,1,0,4.2-2,3.09,3.09,0,0,0-3.2.6,2.81,2.81,0,0,0-1,1.4"/><g class="cls-54"><path class="cls-1" d="M321.9,397l7.9-6.7,6.6,7.8-7.9,6.7Z"/></g><path id="bc" class="cls-1" d="M458.6,137.6a16.51,16.51,0,1,0,8.2-2.2,16.38,16.38,0,0,0-8.2,2.2"/><path id="SVGID-54" data-name="SVGID" class="cls-1" d="M450.6,146.6a16.65,16.65,0,1,0,4.9-7,15.92,15.92,0,0,0-4.9,7"/><path class="cls-1" d="M450.6,146.6a16.65,16.65,0,1,0,4.9-7,15.92,15.92,0,0,0-4.9,7"/><g class="cls-55"><path class="cls-1" d="M430.6,150.1l39.3-33.3L503,155.9l-39.3,33.3Z"/></g></g></g></svg>